# xmcd CD database file
#
# Track frame offsets:
#	150
#	23025
#	42225
#	60975
#	83175
#	103500
#	125700
#	144825
#	164100
#	185475
#	211725
#	230550
#	252000
#	273600
#	298425
#
# Disc length: 4291 seconds
#
# Revision: 0
# Processed by: cddbd v1.5.2PL0 Copyright (c) Steve Scherf et al.
# Submitted via: CDex 1.70beta2
#
DISCID=dc10c10f
DTITLE=Celine Dion - letr's talk about love
DYEAR=1900
DGENRE=Salsa
TTITLE0=The Season
TTITLE1=Immortality
TTITLE2=Treat her like a lady
TTITLE3=Why oh why
TTITLE4=Love is on the way
TTITLE5=Tell him
TTITLE6=Amar haciendo el amor
TTITLE7=When i need you
TTITLE8=Miles to go
TTITLE9=Us
TTITLE10=Just a little bit of love
TTITLE11=My herart will go on
TTITLE12=I hate you then i love you
TTITLE13=To love you more
TTITLE14=Leet's talk about love
EXTD=
EXTT0=
EXTT1=
EXTT2=
EXTT3=
EXTT4=
EXTT5=
EXTT6=
EXTT7=
EXTT8=
EXTT9=
EXTT10=
EXTT11=
EXTT12=
EXTT13=
EXTT14=
PLAYORDER=
